<svg width="180" height="42" viewBox="0 0 180 42" fill="none" xmlns="http://www.w3.org/2000/svg">
<path fill-rule="evenodd" clip-rule="evenodd" d="M18.6445 0.5L1 10.6851V31.0891L18.6445 41.2742L36.258 31.0709V10.7033L18.6445 0.5ZM27.3658 33.1287L12.4262 24.4824L9.75231 26.029L24.6945 34.6727L18.6445 38.1785L3.67389 29.5425V22.3416L18.6445 13.6797V10.5865L3.67389 19.2484V12.2291L18.6445 3.58797L24.8447 7.17937V24.472L27.516 26.016V8.72335L33.5867 12.2473V29.527L27.3658 33.1287ZM61.3386 13.1062V10.6228H48.6817V31.1514H51.366V22.2456H59.797V19.7622H51.366V13.1062H61.3386ZM87.0774 15.971C89.2849 15.971 91.0545 16.7754 92.0883 18.2416V10.6203H94.6275V31.1514H92.4174L92.1142 28.8886C90.8965 30.4871 89.1579 31.3304 87.0774 31.3304C82.7038 31.3304 79.8796 28.1698 79.8796 23.6494C79.8796 19.1291 82.8385 15.971 87.0774 15.971ZM82.481 23.6494C82.481 26.8749 84.4216 29.0417 87.3132 29.0417C90.1425 29.0417 92.1194 26.9268 92.1194 23.7117C92.1194 20.4966 90.2021 18.252 87.3132 18.252C84.4242 18.252 82.481 20.4239 82.481 23.6494ZM105.52 16.1527H98.5062V18.4907H102.983V28.8134H98.5062V31.1514H110.023V28.8134H105.52V16.1527ZM106.157 11.8036C106.157 12.9142 105.367 13.7186 104.279 13.7186C103.191 13.7186 102.372 12.8597 102.372 11.8036C102.372 10.7474 103.224 9.92224 104.279 9.92224C105.333 9.92224 106.157 10.6929 106.157 11.8036ZM127.548 15.9736C125.286 15.9736 124.001 17.1414 123.31 18.169C122.579 16.791 121.154 15.9736 119.467 15.9736C117.907 15.9736 116.614 16.5497 115.798 17.5981L115.612 16.1527H113.459V31.1514H115.998V21.9342C115.998 19.7389 117.115 18.3739 118.913 18.3739C121.203 18.3739 121.682 20.1203 121.682 21.5839V31.1514H124.224V21.7292C124.224 19.7233 125.429 18.3739 127.225 18.3739C129.02 18.3739 129.911 19.5443 129.911 21.5839V31.1514H132.448V21.4983C132.448 18.0911 130.569 15.9736 127.548 15.9736ZM143.98 11.8036C143.98 12.896 143.172 13.7186 142.099 13.7186C141.011 13.7186 140.192 12.8597 140.192 11.8036C140.192 10.7474 141.045 9.92224 142.099 9.92224C143.154 9.92224 143.98 10.7111 143.98 11.8036ZM143.343 16.1527H136.327V18.4907H140.804V28.8134H136.327V31.1514H147.846V28.8134H143.343V16.1527ZM153.792 18.0522C154.593 17.0713 156.031 15.9736 158.448 15.9736C160.648 15.9736 164.34 16.8248 164.34 22.5155V31.1514H161.804V22.6608C161.804 19.8608 160.467 18.3169 158.042 18.3169C155.438 18.3169 153.821 20.2501 153.821 23.3614V31.1514H151.282V16.1527H153.489L153.792 18.0522ZM175.002 28.8134C173.779 28.8134 173.367 28.4008 173.367 27.176V18.4907H178.57V16.1527H173.367V11.9878H170.828V16.1527H166.905V18.4907H170.828V27.2019C170.828 29.9707 172.007 31.1514 174.772 31.1514H178.803V28.8134H175.002ZM62.9114 23.6494C62.9114 19.059 65.7718 15.9736 70.0262 15.9736L70.0236 15.9762C74.2935 15.9762 77.0166 18.706 77.1332 23.0993C77.1332 23.3224 77.1073 23.8207 77.0736 24.1866L77.0684 24.2566H65.5671V24.3189C65.6604 27.1889 67.4663 29.0443 70.1713 29.0443C72.0316 29.0443 73.5084 28.1387 74.1251 26.6206L74.1458 26.5713H76.7705L76.742 26.6699C75.9388 29.501 73.4281 31.3304 70.3449 31.3304C65.8987 31.3304 62.9114 28.2399 62.9114 23.6494ZM65.7226 22.0587H74.4153C74.1614 19.6584 72.5368 18.2286 70.0521 18.2286C67.8213 18.2286 65.9739 19.8686 65.7226 22.0587Z" fill="black"/>
</svg>
