<svg width="180" height="36" viewBox="0 0 180 36" fill="none" xmlns="http://www.w3.org/2000/svg">
<path d="M7.43225 31L4.30025 7.528H9.80825L10.5283 20.02C10.5283 20.692 10.5403 21.352 10.5643 22C10.5883 22.624 10.6003 23.26 10.6003 23.908C10.6243 24.532 10.6363 25.204 10.6363 25.924H10.7803C10.8763 25.204 10.9843 24.532 11.1043 23.908C11.2483 23.26 11.3923 22.612 11.5363 21.964C11.6803 21.316 11.8123 20.668 11.9323 20.02L13.5163 13.468H16.9003L18.3763 20.02C18.5203 20.668 18.6523 21.304 18.7723 21.928C18.8923 22.552 19.0243 23.2 19.1683 23.872C19.3123 24.52 19.4323 25.204 19.5283 25.924H19.6723C19.6963 25.204 19.7083 24.52 19.7083 23.872C19.7323 23.2 19.7443 22.552 19.7443 21.928C19.7683 21.304 19.7923 20.668 19.8163 20.02L20.4643 7.528H25.6123L22.7323 31H17.0443L15.6763 23.728C15.5323 22.984 15.4003 22.228 15.2803 21.46C15.1603 20.692 15.0763 19.96 15.0283 19.264H14.9203C14.8483 19.96 14.7643 20.692 14.6683 21.46C14.5723 22.228 14.4523 22.984 14.3083 23.728L12.9403 31H7.43225ZM37.6222 31.432C35.7742 31.432 34.0942 31.072 32.5822 30.352C31.0942 29.608 29.9062 28.54 29.0182 27.148C28.1542 25.732 27.7222 24.04 27.7222 22.072C27.7222 20.128 28.1662 18.46 29.0542 17.068C29.9422 15.652 31.0942 14.572 32.5102 13.828C33.9262 13.084 35.4262 12.712 37.0102 12.712C38.8582 12.712 40.4062 13.096 41.6542 13.864C42.9022 14.608 43.8382 15.628 44.4622 16.924C45.1102 18.196 45.4342 19.648 45.4342 21.28C45.4342 21.76 45.3982 22.228 45.3262 22.684C45.2782 23.116 45.2302 23.44 45.1822 23.656H31.6462V20.092H41.6182L40.7902 21.1C40.7902 19.66 40.4782 18.58 39.8542 17.86C39.2542 17.116 38.3662 16.744 37.1902 16.744C36.3262 16.744 35.5702 16.936 34.9222 17.32C34.2742 17.704 33.7702 18.292 33.4102 19.084C33.0502 19.876 32.8702 20.872 32.8702 22.072C32.8702 23.296 33.0862 24.304 33.5182 25.096C33.9502 25.864 34.5742 26.44 35.3902 26.824C36.2062 27.208 37.1902 27.4 38.3422 27.4C39.1582 27.4 39.9262 27.292 40.6462 27.076C41.3902 26.86 42.1582 26.548 42.9502 26.14L44.7142 29.344C43.6822 29.992 42.5422 30.508 41.2942 30.892C40.0462 31.252 38.8222 31.432 37.6222 31.432ZM59.4961 31.432C58.6801 31.432 57.8401 31.228 56.9761 30.82C56.1361 30.412 55.3561 29.824 54.6361 29.056H54.4921L54.0601 31H49.9201V5.764H55.2121V11.956L55.0321 14.764H55.1401C55.8361 14.116 56.6041 13.612 57.4441 13.252C58.3081 12.892 59.1721 12.712 60.0361 12.712C61.5481 12.712 62.8321 13.084 63.8881 13.828C64.9681 14.572 65.7961 15.628 66.3721 16.996C66.9481 18.34 67.2361 19.924 67.2361 21.748C67.2361 23.788 66.8641 25.54 66.1201 27.004C65.4001 28.444 64.4521 29.548 63.2761 30.316C62.1001 31.06 60.8401 31.432 59.4961 31.432ZM58.3081 27.112C58.9561 27.112 59.5441 26.932 60.0721 26.572C60.6001 26.212 61.0201 25.648 61.3321 24.88C61.6441 24.088 61.8001 23.08 61.8001 21.856C61.8001 20.776 61.6801 19.888 61.4401 19.192C61.2001 18.472 60.8401 17.932 60.3601 17.572C59.9041 17.212 59.2921 17.032 58.5241 17.032C57.9481 17.032 57.3841 17.164 56.8321 17.428C56.3041 17.668 55.7641 18.088 55.2121 18.688V25.924C55.7161 26.332 56.2321 26.632 56.7601 26.824C57.3121 27.016 57.8281 27.112 58.3081 27.112ZM78.9221 31V17.284H71.7221V13.144H84.2141V31H78.9221ZM81.3341 10.336C80.3261 10.336 79.4861 10.048 78.8141 9.472C78.1421 8.872 77.8061 8.092 77.8061 7.132C77.8061 6.148 78.1421 5.356 78.8141 4.756C79.4861 4.132 80.3261 3.82 81.3341 3.82C82.3661 3.82 83.2061 4.132 83.8541 4.756C84.5261 5.356 84.8621 6.148 84.8621 7.132C84.8621 8.092 84.5261 8.872 83.8541 9.472C83.2061 10.048 82.3661 10.336 81.3341 10.336ZM91.76 31V13.144H95.756L96.116 15.34H96.26C96.596 14.62 97.064 14.008 97.664 13.504C98.264 12.976 99.08 12.712 100.112 12.712C100.88 12.712 101.54 12.964 102.092 13.468C102.644 13.948 103.016 14.668 103.208 15.628C103.544 14.812 104.024 14.128 104.648 13.576C105.296 13 106.136 12.712 107.168 12.712C108.44 12.712 109.424 13.228 110.12 14.26C110.816 15.292 111.164 16.696 111.164 18.472V31H106.124V18.832C106.124 17.752 105.8 17.212 105.152 17.212C104.816 17.212 104.516 17.356 104.252 17.644C104.012 17.908 103.772 18.34 103.532 18.94V31H99.392V18.832C99.392 18.28 99.308 17.872 99.14 17.608C98.972 17.344 98.72 17.212 98.384 17.212C98.048 17.212 97.76 17.356 97.52 17.644C97.28 17.908 97.04 18.34 96.8 18.94V31H91.76ZM122.094 31V17.284H114.894V13.144H127.386V31H122.094ZM124.506 10.336C123.498 10.336 122.658 10.048 121.986 9.472C121.314 8.872 120.978 8.092 120.978 7.132C120.978 6.148 121.314 5.356 121.986 4.756C122.658 4.132 123.498 3.82 124.506 3.82C125.538 3.82 126.378 4.132 127.026 4.756C127.698 5.356 128.034 6.148 128.034 7.132C128.034 8.092 127.698 8.872 127.026 9.472C126.378 10.048 125.538 10.336 124.506 10.336ZM136.264 31V13.144H140.584L140.98 15.52H141.124C141.892 14.752 142.768 14.092 143.752 13.54C144.76 12.988 145.936 12.712 147.28 12.712C149.296 12.712 150.772 13.36 151.708 14.656C152.644 15.952 153.112 17.728 153.112 19.984V31H147.82V20.668C147.82 19.468 147.616 18.592 147.208 18.04C146.824 17.488 146.152 17.212 145.192 17.212C144.472 17.212 143.836 17.38 143.284 17.716C142.756 18.028 142.18 18.484 141.556 19.084V31H136.264ZM169.226 31.432C167.33 31.432 165.818 31.108 164.69 30.46C163.586 29.788 162.782 28.864 162.278 27.688C161.774 26.512 161.522 25.144 161.522 23.584V17.284H157.058V13.36L161.774 13.144L162.458 7.672H166.814V13.144H174.374V17.284H166.814V23.548C166.814 24.436 166.946 25.156 167.21 25.708C167.474 26.26 167.882 26.668 168.434 26.932C168.986 27.172 169.694 27.292 170.558 27.292C171.254 27.292 171.89 27.232 172.466 27.112C173.042 26.992 173.594 26.836 174.122 26.644L175.058 30.46C174.266 30.7 173.39 30.916 172.43 31.108C171.494 31.324 170.426 31.432 169.226 31.432Z" fill="black"/>
</svg>
